<svg version="1.1" xmlns="http://www.w3.org/2000/svg" xmlns:xlink="http://www.w3.org/1999/xlink" viewBox="25 25 582 229">
<style type="text/css">
	.st0{fill:#273C53;}
	.st1{fill:#405D7B;}
	.st2{fill:#E8E8E8;}
	.st3{fill:none;stroke:#5D748C;stroke-linecap:square;stroke-linejoin:round;stroke-miterlimit:10;stroke-dasharray:1.9435,3.8871;}
	.st4{fill:none;}
	.st5{fill:#546373;}
	.st6{font-family:'Verdana';}
	.st7{font-size:24px;}
	.st8{font-size:24px;}
	.st9{font-size:24px;}
	.st10{fill:#D3E3F4;}
</style>
<g>
	<g>
		<path class="st0" d="M132.3,86.7c0.1,1.1-0.1,2.1-0.7,3c-1.9,3.1-6.9,3.9-11.3,1.6c-4.4-2.2-6.4-6.6-4.5-9.7
			c-0.1,0.1-0.2,0.3-0.2,0.4c-2.1,3-7.3,3.4-11.6,0.8s-6.2-7.1-4.1-10.1c-1.9,3.1-7,3.6-11.3,1.3c-4.3-2.4-6.3-6.8-4.3-9.9
			c-0.1,0.2-0.2,0.3-0.3,0.4c-2.1,2.6-7.1,2.4-11.2-0.5c-4.1-2.9-5.7-7.4-3.6-10c-0.2,0.2-0.4,0.4-0.6,0.6
			c-2.6,2.4-7.7,1.7-11.4-1.5c-3.7-3.3-4.6-7.8-2.1-10.3c-0.1,0.2-0.3,0.4-0.5,0.5c-2.6,2.6-7.9,2.1-11.7-1.2
			c-3.8-3.3-4.8-8-2.2-10.6c-1.3,1.5-3.5,2.1-5.9,1.8c-4.5-0.6-8.7-4.4-9.3-8.5h582.3c-0.3,2.2-1.7,4.4-3.8,6
			c-3.9,3.1-9,3.4-11.4,0.7c0.2,0.2,0.3,0.3,0.5,0.5c2.2,2.9,0.7,7.7-3.4,10.7c-4.1,3-9.2,3-11.4,0.1c0.2,0.2,0.4,0.4,0.6,0.6
			c2.1,2.8,0.5,7.5-3.5,10.4c-4,2.9-9,3-11.1,0.2c0.1,0.1,0.2,0.3,0.3,0.4c1.7,2.9-0.3,7.4-4.6,10c-4.3,2.7-9.1,2.5-10.8-0.4
			c1.9,3.1,0,7.5-4.3,9.9c-4.3,2.4-9.4,1.8-11.3-1.3c0.1,0.1,0.2,0.3,0.3,0.4c1.8,3.2-0.4,7.7-4.9,10c-4.5,2.3-9.5,1.6-11.3-1.5
			c0.5,0.9,0.8,1.9,0.7,3c-0.3,3.8-4.4,7.4-9.1,8c-4.7,0.6-8.3-2-8.1-5.8C384.3,138.8,249,138.8,132.3,86.7z"/>
	</g>
	<g>
		<path class="st1" d="M578.7,24.9H54.6C204.6,149,428.7,149,578.7,24.9z"/>
	</g>
	<g>
		<path class="st2" d="M524.4,100.7c0.4,0.7,0.2,1.6-0.6,2c-64.6,33.3-136.3,49.9-207.9,49.9c-71.7,0-143.3-16.6-207.9-49.9
			c-0.7-0.4-1-1.3-0.5-2l8.8-13.7l9-14c0.4-0.6,1.1-0.8,1.8-0.5c60.1,26.6,124.9,40,189.7,40c64.8,0,129.6-13.3,189.6-40
			c0.7-0.3,1.4,0,1.8,0.6l8.2,13.9L524.4,100.7z"/>
	</g>
	<g>
		<path class="st3" d="M72.7,25.6c144.2,103.6,343.8,103.6,488,0"/>
	</g>
	<g>
		<path id="arc_text" class="st4" d="M143,105 c105,45 251,45, 347,00"/>
		<text>		
		  <textPath  xlink:href="#arc_text" startOffset="1%">
			  <tspan  class="st6" style="fill:#0E75EA; font-size:14px;">HOME</tspan>
			  <tspan  dx="26px" class="st5 st6" style="font-size:14px;">ABOUT US</tspan>
			  <tspan  dx="22px" class="st5 st6" style="font-size:14px;">PORTFOLIO</tspan>		
			  <tspan  dx="25px" class="st5 st6" style="font-size:14px;">CONTACT</tspan>		
		  </textPath>
		</text>
	</g>
	<g>
		<path id="arc_separator" class="st4" d="M192.2,125.8c67.1,19.4,160.5,21,228.2,3.8"/>
		<text>		
			<textPath  xlink:href="#arc_separator" startOffset="80%"></textPath>
		</text>
		<text transform="matrix(0.772 0.2099 -0.2641 0.9645 193.9682 126.3433)" class="st5 st6 st7">l</text>
		<text transform="matrix(0.7999 1.368841e-002 -1.910000e-002 0.9998 302.8077 141.3825)" class="st5 st6 st8">l</text>
		<text transform="matrix(0.7788 -0.1828 0.2268 0.9739 412.2783 131.6089)" class="st5 st6 st9">l</text>
	</g>
	<g>
		<path class="st10" d="M251.2,58.7c1.1,0,1.6,0.9,1.7,1.1c0.2,0.7,1,1.2,1.7,1.2c1.1,0,2-0.8,2-1.9c0-1.3-1.6-3.8-5.4-3.8
			c-3.9,0-6.1,2.6-6.1,5c0,3.3,3.3,4.9,4.5,5.5c1.9,0.9,2.8,2,2.8,3.3c0,2.2-2.1,2.7-3.4,2.7c-1.6,0-2.9-1-2.9-1.8
			c0-0.8,0.4-0.8,0.6-0.8c0.1,0,0.2,0,0.4,0.1c0.1,0,0.2,0.1,0.4,0.1c0.1,0,0.2,0,0.2,0c0.9,0,1.7-0.6,1.7-1.7c0-1.2-1.1-2-2.7-2
			c-2.6,0-4.6,1.9-4.6,4.4c0,2.8,3,5,6.8,5c4.5,0,7.5-2.5,7.5-6.3c0-2.9-2-4.6-4.9-6.2c-2.2-1.2-2.4-1.7-2.4-2.3
			C249.1,59.3,249.9,58.7,251.2,58.7z"/>
		<path class="st10" d="M264.9,71.3c-0.4-0.1-1.5-0.4-1.5-3.8c0-2.5,0.5-5.5,1.3-8.5c1.1,0.1,2.6,0.1,3.5,0.1c1,0,1.8-0.7,1.8-1.7
			c0-0.9-0.9-1.6-1.8-1.8c0,0-0.1,0-0.1,0l-1.1,0c-0.5,0-1,0-1.4,0c0.4-1.4,0.9-3.3,1.3-4.5c0.1-0.2,0.2-0.6,0.2-0.8
			c0-1-0.9-1.7-2-1.7c0,0-0.1,0-0.1,0c-0.8,0.1-1.5,0.6-1.7,1.3c-0.6,1.9-1.2,4-1.6,5.7c-2.1,0.1-4.5,0.3-4.5,2.2
			c0,1,0.8,1.6,1.5,1.6c0.4,0,0.7-0.1,1.1-0.1c0.3,0,0.6-0.1,1-0.1c-0.8,3.2-1.2,5.9-1.2,8.6c0,4.3,1.6,6.7,4.8,7.2l0.1,0
			c0.1,0,0.3,0,0.3,0c0,0,0,0,0.1,0c1.1-0.1,1.9-0.9,1.9-1.9C266.7,72.1,265.9,71.3,264.9,71.3z"/>
		<path class="st10" d="M278.1,55.2c-3,0-5.9,1.7-8,4.7c-1.8,2.6-2.9,5.9-2.9,8.8c0,4.5,2.8,6.1,5.3,6.1c3.6,0,5.6-2.4,6.3-4
			c0,0.3,0,0.5,0,0.8c0,1.9,0.9,3.2,2.3,3.2c1.1,0,2-0.8,2-1.8c0-0.4-0.1-0.7-0.3-0.8l0,0c0-0.1-0.1-0.2-0.1-0.4
			c0-0.8,0.2-2.2,0.4-3.4l0.1-0.6c0.5-2.5,0.7-4.6,0.7-6.3C284,57.5,281.8,55.2,278.1,55.2z M279.4,67.1c-0.1,0.6-0.2,1.1-0.3,1.6
			c0,0.2-0.1,0.4-0.1,0.6c-0.2-0.8-0.9-1.4-1.9-1.4c-0.8,0-1.5,0.4-1.8,1.1c-0.4,1.1-1.3,2.2-2.5,2.2c-1.2,0-1.7-1.3-1.7-2.6
			c0-4.5,3.1-10,6.7-10c1.4,0,2.2,1,2.2,2.7c0,1.6-0.3,3.4-0.6,5.1L279.4,67.1z"/>
		<path class="st10" d="M299.4,57.2c0-1-0.9-1.8-2.1-1.8c-2.7,0-5.1,1.3-6.6,3.3c-0.3-0.8-0.7-1.4-1.2-1.9c-0.5-0.5-1.2-0.8-1.7-0.8
			c-1,0-1.9,0.8-1.9,1.8c0,0.2,0,0.9,0.6,1.3c0.5,0.5,1,1.1,1,3.3c0,1.1-0.7,5.5-1.2,8.1c-0.3,1.8-0.4,2.2-0.4,2.4
			c0,1,0.8,1.8,1.9,1.8c1,0,1.8-0.6,2-1.5l0.4-2.1c1.3-6.5,2.3-12,7.5-12.3C298.6,58.8,299.4,58.1,299.4,57.2z"/>
		<path class="st10" d="M304.8,58.7c1.1,0,1.6,0.9,1.7,1.1c0.2,0.7,1,1.2,1.7,1.2c1.1,0,2-0.8,2-1.9c0-1.3-1.6-3.8-5.4-3.8
			c-3.9,0-6.1,2.6-6.1,5c0,3.3,3.3,4.9,4.5,5.5c1.9,0.9,2.8,2,2.8,3.3c0,2.2-2.1,2.7-3.4,2.7c-1.6,0-2.9-1-2.9-1.8
			c0-0.8,0.4-0.8,0.6-0.8c0.1,0,0.2,0,0.4,0.1c0.1,0,0.2,0.1,0.4,0.1c0.1,0,0.2,0,0.2,0c0.9,0,1.7-0.6,1.7-1.7c0-1.2-1.1-2-2.8-2
			c-2.6,0-4.6,1.9-4.6,4.4c0,2.8,3,5,6.8,5c4.5,0,7.5-2.5,7.5-6.3c0-2.9-2-4.6-4.9-6.2c-2.2-1.2-2.4-1.7-2.4-2.3
			C302.7,59.3,303.5,58.7,304.8,58.7z"/>
		<path class="st10" d="M318.5,71.3c-0.4-0.1-1.5-0.4-1.5-3.8c0-2.5,0.5-5.5,1.3-8.5c1.1,0.1,2.6,0.1,3.5,0.1c1,0,1.8-0.7,1.8-1.7
			c0-0.9-0.9-1.6-1.8-1.8c0,0-0.1,0-0.1,0l-1.1,0c-0.5,0-1,0-1.4,0c0.4-1.4,0.9-3.3,1.3-4.5c0.1-0.2,0.2-0.6,0.2-0.8
			c0-1-0.9-1.7-2-1.7c0,0-0.1,0-0.1,0c-0.8,0.1-1.5,0.6-1.7,1.3c-0.6,1.9-1.2,4-1.6,5.7c-2.1,0.1-4.5,0.3-4.5,2.2
			c0,1,0.8,1.6,1.5,1.6c0.4,0,0.7-0.1,1.1-0.1c0.3,0,0.6-0.1,1-0.1c-0.8,3.2-1.2,5.9-1.2,8.6c0,4.3,1.6,6.7,4.8,7.2l0.1,0
			c0.1,0,0.3,0,0.3,0c0,0,0,0,0.1,0c1.1-0.1,1.9-0.9,1.9-1.9C320.3,72.1,319.5,71.3,318.5,71.3z"/>
		<path class="st10" d="M331.6,55.1c-4,0-6.2,3-6.2,5.7c0,0.2,0,0.4,0,0.5c-0.4-0.4-0.9-0.7-1.5-0.7c-0.8,0-1.6,0.5-1.9,1.3
			c-0.6,1.4-0.8,2.8-0.8,4.4c0,5.2,2.9,8.6,7.2,8.6c6.2,0,10-6.3,10-12.1C338.3,58.2,335.6,55.1,331.6,55.1z M325.6,63.1
			c0-0.1,0.1-0.2,0.1-0.4c0.8,1.9,2.7,3.1,5.3,3.1c1.7,0,2.2-1,2.2-1.8c0-1-0.9-1.8-2-1.8c-1.2,0-1.9-0.1-1.9-1.4
			c0-0.2,0.1-2.2,2.1-2.2c2.2,0,2.8,2.6,2.8,4.2c0,4.2-2.4,8.6-5.9,8.6c-2.6,0-3.3-3.4-3.3-5.2C325.1,65.1,325.3,63.8,325.6,63.1z"
			/>
		<path class="st10" d="M353.9,68.6c0-1.7,0.4-3.9,0.9-6.4l0.1-0.4c0.4-1.7,0.7-3.7,0.8-4.3c0.1-0.5-0.1-1.1-0.5-1.6
			c-0.3-0.3-0.7-0.5-1.2-0.5c-1.2,0-2,0.6-2.2,1.6c-1.2,8.1-4.4,14.3-7.3,14.3c-1.5,0-1.6-3.2-1.6-4.2c0-3.5,1-7.6,1.3-8.9
			c0,0,0-0.1,0-0.2v-0.3c0-1-0.9-1.9-2-1.9c-1.6,0-1.9,1.3-2,1.8l0,0.2c-0.4,2-1.2,5.7-1.2,9.1c0,7,3.9,7.8,5.5,7.8
			c2.2,0,4.3-1.3,5.8-3.5c0.3,1.1,0.8,2.1,1.5,2.8c0.5,0.4,1,0.7,1.5,0.7c1.1,0,2-0.8,2-1.8c0-0.5-0.1-0.9-0.5-1.2
			C354.1,71.1,353.9,70.1,353.9,68.6z"/>
		<path class="st10" d="M365.5,58.9c0.6,0,1,0.2,1.4,0.7c0.4,0.5,1,0.9,1.7,0.9c1.1,0,1.9-0.8,1.9-1.8c0-0.3-0.1-0.7-0.2-1
			c-0.4-0.9-1.5-2.3-4.5-2.3c-6.1,0-10.1,6.3-10.1,12.1c0,4.6,2.6,7.4,6.8,7.4c4.6,0,7.6-3.4,7.6-4.8c0-1.1-0.8-1.9-1.8-1.9
			c-0.5,0-1.2,0.2-1.7,1c-1,1.6-2.7,2.2-3.9,2.2c-1.4,0-3-0.7-3-4C359.6,64,361.7,58.9,365.5,58.9z"/>
		<path class="st10" d="M382.7,55.4c-2.4,0-4.8,1.6-6.6,4.2c0.4-2.1,0.8-3.8,1.2-5.2c5.7-1.4,11.5-5.5,11.5-9.9
			c0-2.5-1.8-4.1-4.5-4.1c-4.6,0-8.2,5.6-10.1,11c-0.5,0.1-1,0.1-1.6,0.1h-1c-1-0.1-2,0.7-2,1.7c0,1.8,1.9,1.8,2.7,1.8l0.2,0
			c0.2,0,0.4,0,0.6,0c-0.6,2.6-1.7,8.4-1.7,13.7c0,1.8,0.1,2.8,0.4,4.4c0.2,0.9,1,1.5,1.9,1.5c0.6,0,1.1-0.2,1.5-0.6
			c0.3-0.4,0.5-0.8,0.4-1.3c-0.5-4,1.8-9.4,4.3-12.1c0.9-1,1.9-1.5,2.6-1.5c0.3,0,1.4,0,1.4,4.6c0,3.7-1,7.5-1.2,8.2
			c0,0.1,0,0.1,0,0.2c0,0.1,0,0.2,0,0.3c0,1,0.9,1.8,2,1.8c0.9,0,1.6-0.5,1.9-1.3c0.2-0.5,1.4-4.8,1.4-9.2
			C387.9,61.6,387.9,55.4,382.7,55.4z M384.1,43.9c0.4,0,0.7,0.1,0.7,0.7c0,1.9-2.6,4.3-6.1,5.7C380.4,46.1,382.9,43.9,384.1,43.9z"
			/>
	</g>
	</g>
</svg>
